<svg width="174" height="73" viewBox="0 0 174 73" fill="none" xmlns="http://www.w3.org/2000/svg">
<rect x="7.47266" width="172.331" height="28.8649" rx="14.4325" transform="rotate(15 7.47266 0)" fill="#DD2025" fill-opacity="0.1"/>
<rect x="7.77903" y="0.530657" width="171.465" height="27.9984" rx="13.9992" transform="rotate(15 7.77903 0.530657)" stroke="#DD2025" stroke-opacity="0.21" stroke-width="0.866559"/>
<path d="M17.6966 17.0237L16.7475 17.037C16.7314 16.8751 16.6879 16.7103 16.6168 16.5426C16.5493 16.3729 16.4363 16.2177 16.2777 16.0771C16.1191 15.9365 15.897 15.8279 15.6112 15.7513C15.2201 15.6465 14.8699 15.6493 14.5608 15.7598C14.2552 15.8682 14.0657 16.0597 13.9921 16.3344C13.9267 16.5785 13.9638 16.7951 14.1034 16.9842C14.243 17.1732 14.4889 17.3655 14.8409 17.5609L15.7273 18.0482C16.2616 18.34 16.6306 18.6663 16.8342 19.0272C17.0386 19.3852 17.0809 19.7876 16.9612 20.2342C16.8631 20.6004 16.67 20.8996 16.3818 21.1316C16.0964 21.3643 15.7442 21.5138 15.3251 21.5799C14.9059 21.646 14.4481 21.6125 13.9515 21.4794C13.2995 21.3048 12.7979 21.0187 12.4465 20.6212C12.095 20.2238 11.9353 19.7379 11.9673 19.1637L12.9619 19.1804C12.9585 19.5482 13.0572 19.8512 13.258 20.0894C13.4616 20.3283 13.7645 20.5016 14.1668 20.6094C14.6245 20.7321 15.014 20.7324 15.3351 20.6103C15.6598 20.4861 15.8589 20.2868 15.9325 20.0121C15.992 19.7902 15.9641 19.5835 15.8489 19.392C15.7344 19.1978 15.5263 19.0201 15.2245 18.859L14.2261 18.3239C13.6779 18.0283 13.3055 17.6981 13.1089 17.3332C12.9158 16.9663 12.8784 16.5623 12.9966 16.1212C13.0932 15.7605 13.28 15.4686 13.5568 15.2454C13.8365 15.023 14.1736 14.88 14.5683 14.8162C14.9658 14.7533 15.3893 14.782 15.8387 14.9024C16.4712 15.0719 16.9306 15.3437 17.217 15.7177C17.5061 16.0925 17.6659 16.5279 17.6966 17.0237ZM20.5234 23.2404C19.9463 23.0858 19.4768 22.8128 19.1148 22.4214C18.7557 22.0308 18.5201 21.5559 18.4083 20.9966C18.2993 20.4381 18.3332 19.8288 18.5101 19.1685C18.6886 18.5027 18.965 17.9538 19.3394 17.5219C19.7166 17.0907 20.1584 16.7958 20.6647 16.6371C21.1739 16.4791 21.717 16.4775 22.294 16.6321C22.8711 16.7867 23.3392 17.0593 23.6984 17.45C24.0604 17.8413 24.2955 18.3176 24.4038 18.8789C24.5149 19.4409 24.4812 20.0548 24.3028 20.7206C24.1259 21.3809 23.8492 21.9252 23.4727 22.3536C23.0991 22.7828 22.6576 23.0763 22.1485 23.2343C21.6421 23.393 21.1004 23.395 20.5234 23.2404ZM20.7597 22.3582C21.1981 22.4756 21.5888 22.4599 21.932 22.311C22.2752 22.1621 22.5638 21.9228 22.7979 21.593C23.032 21.2632 23.2062 20.8847 23.3207 20.4575C23.4352 20.0302 23.4739 19.6139 23.4368 19.2085C23.3997 18.8031 23.2702 18.4488 23.0482 18.1455C22.8262 17.8421 22.496 17.6318 22.0576 17.5143C21.6193 17.3969 21.2282 17.414 20.8843 17.5656C20.5403 17.7173 20.251 17.9594 20.0162 18.292C19.7814 18.6245 19.6067 19.0044 19.4922 19.4316C19.3778 19.8589 19.3394 20.2738 19.3772 20.6764C19.4151 21.0791 19.5453 21.4306 19.7681 21.7312C19.9909 22.0317 20.3214 22.2407 20.7597 22.3582ZM29.683 22.751L30.6954 18.9724L31.6775 19.2356L29.9648 25.6275L28.9827 25.3643L29.2726 24.2824L29.206 24.2645C28.9693 24.549 28.6623 24.7626 28.285 24.9053C27.9086 25.0453 27.479 25.0506 26.9962 24.9213C26.5967 24.8142 26.2651 24.6317 26.0012 24.3736C25.738 24.1128 25.5653 23.7811 25.4829 23.3784C25.4012 22.973 25.4332 22.4983 25.5789 21.9546L26.6672 17.8931L27.6493 18.1562L26.5788 22.1512C26.454 22.6172 26.4847 23.0239 26.6712 23.3712C26.8604 23.7193 27.1589 23.9479 27.5667 24.0572C27.8109 24.1226 28.0759 24.1267 28.3618 24.0695C28.6505 24.0131 28.9154 23.8789 29.1565 23.667C29.4004 23.4558 29.5759 23.1505 29.683 22.751ZM33.7759 22.5275L32.7456 26.3726L31.7636 26.1094L33.4763 19.7176L34.425 19.9718L34.1574 20.9705L34.2407 20.9928C34.4774 20.7084 34.7748 20.5086 35.1328 20.3934C35.4915 20.2754 35.9122 20.2811 36.3949 20.4104C36.8277 20.5264 37.1826 20.7166 37.4596 20.9811C37.7373 21.2429 37.9184 21.5769 38.0029 21.9831C38.088 22.3865 38.0578 22.8601 37.9121 23.4038L36.8238 27.4653L35.8417 27.2022L36.9121 23.2073C37.0467 22.7051 37.0211 22.279 36.8354 21.9289C36.6505 21.5761 36.3305 21.3387 35.8755 21.2168C35.562 21.1328 35.2636 21.1257 34.9803 21.1955C34.6997 21.266 34.4538 21.4127 34.2424 21.6356C34.031 21.8584 33.8755 22.1557 33.7759 22.5275ZM40.9963 28.7261C40.4637 28.5834 40.0295 28.3228 39.6938 27.9444C39.3588 27.5633 39.1423 27.0949 39.0444 26.5394C38.9472 25.9811 38.9893 25.3635 39.1707 24.6866C39.3506 24.0152 39.6218 23.4635 39.9844 23.0314C40.347 22.5993 40.7696 22.3037 41.2523 22.1446C41.735 21.9855 42.2454 21.9781 42.7836 22.1223C43.1998 22.2338 43.5099 22.3912 43.7141 22.5946C43.9218 22.796 44.0661 23.0011 44.1469 23.2101C44.2312 23.417 44.2945 23.5857 44.3369 23.716L44.4201 23.7383L45.2631 20.5922L46.2452 20.8554L43.9616 29.3779L43.0128 29.1237L43.276 28.1416L43.1594 28.1104C43.0561 28.2076 42.914 28.3271 42.7333 28.469C42.5533 28.6081 42.3213 28.7139 42.0372 28.7864C41.7539 28.8562 41.4069 28.8361 40.9963 28.7261ZM41.3659 27.8796C41.7598 27.9851 42.1202 27.9717 42.4471 27.8392C42.7747 27.704 43.0584 27.4722 43.298 27.144C43.5383 26.8129 43.7232 26.406 43.8525 25.9233C43.9804 25.4461 44.0229 25.01 43.9801 24.6149C43.938 24.2171 43.8078 23.8819 43.5894 23.6093C43.3718 23.334 43.0633 23.1427 42.6638 23.0357C42.2476 22.9242 41.8722 22.9381 41.5376 23.0774C41.2064 23.2146 40.9228 23.4464 40.6867 23.7726C40.4541 24.0969 40.2776 24.4837 40.1572 24.9331C40.0353 25.3881 39.9939 25.82 40.033 26.229C40.0756 26.6359 40.2049 26.9857 40.4208 27.2784C40.6403 27.5692 40.9553 27.7695 41.3659 27.8796ZM51.7534 26.1492L50.8042 26.1625C50.7882 26.0006 50.7446 25.8358 50.6736 25.6681C50.6061 25.4983 50.493 25.3432 50.3344 25.2026C50.1759 25.0619 49.9537 24.9534 49.668 24.8768C49.2768 24.772 48.9267 24.7748 48.6176 24.8852C48.312 24.9937 48.1224 25.1852 48.0488 25.4599C47.9834 25.704 48.0205 25.9206 48.1601 26.1097C48.2998 26.2987 48.5456 26.491 48.8976 26.6864L49.784 27.1736C50.3183 27.4655 50.6873 27.7918 50.8909 28.1526C51.0953 28.5107 51.1377 28.9131 51.018 29.3597C50.9199 29.7259 50.7267 30.025 50.4386 30.2571C50.1532 30.4898 49.8009 30.6393 49.3818 30.7054C48.9627 30.7715 48.5048 30.738 48.0082 30.6049C47.3563 30.4302 46.8546 30.1442 46.5032 29.7467C46.1518 29.3493 45.9921 28.8634 46.024 28.2892L47.0186 28.3059C47.0152 28.6737 47.1139 28.9767 47.3147 29.2149C47.5183 29.4538 47.8213 29.6271 48.2235 29.7349C48.6813 29.8576 49.0707 29.8578 49.3919 29.7357C49.7165 29.6116 49.9156 29.4122 49.9892 29.1376C50.0487 28.9156 50.0208 28.7089 49.9056 28.5175C49.7911 28.3233 49.583 28.1456 49.2813 27.9845L48.2829 27.4494C47.7347 27.1538 47.3623 26.8236 47.1657 26.4587C46.9726 26.0918 46.9351 25.6877 47.0533 25.2466C47.15 24.886 47.3367 24.5941 47.6136 24.3709C47.8932 24.1485 48.2304 24.0054 48.6251 23.9417C49.0226 23.8787 49.446 23.9074 49.8954 24.0279C50.528 24.1974 50.9874 24.4691 51.2737 24.8432C51.5628 25.218 51.7227 25.6533 51.7534 26.1492ZM58.5806 24.1607L56.297 32.6832L55.3149 32.42L57.5985 23.8975L58.5806 24.1607ZM58.0957 33.1651L59.8084 26.7733L60.7905 27.0364L59.0778 33.4283L58.0957 33.1651ZM60.5932 25.8417C60.4018 25.7905 60.2542 25.681 60.1505 25.5135C60.0494 25.3467 60.0235 25.1717 60.0725 24.9886C60.1216 24.8055 60.2316 24.667 60.4024 24.573C60.5761 24.4798 60.7586 24.4588 60.9501 24.5101C61.1415 24.5614 61.2877 24.6704 61.3887 24.8373C61.4925 25.0048 61.5198 25.1802 61.4708 25.3633C61.4217 25.5464 61.3103 25.6845 61.1367 25.7777C60.9658 25.8717 60.7847 25.893 60.5932 25.8417ZM62.4165 31.8252L62.7254 30.6056L62.9252 30.6591L66.4843 28.5621L67.6995 28.8876L63.9126 31.1021L63.8294 31.0798L62.4165 31.8252ZM60.8766 33.9103L63.1602 25.3878L64.1423 25.6509L61.8587 34.1734L60.8766 33.9103ZM64.9381 34.9985L63.2887 31.1669L64.1707 30.6717L66.1865 35.333L64.9381 34.9985ZM69.6318 36.3989C69.0159 36.2339 68.5211 35.9556 68.1473 35.5641C67.777 35.1705 67.5369 34.6958 67.4272 34.1401C67.3209 33.5824 67.3555 32.9761 67.5309 32.3214C67.7063 31.6667 67.9803 31.1216 68.3526 30.6862C68.7286 30.2487 69.1691 29.9475 69.6741 29.7825C70.1827 29.6155 70.7256 29.6093 71.3026 29.7639C71.6355 29.8531 71.9494 29.9967 72.2443 30.1946C72.5391 30.3926 72.7863 30.6521 72.9857 30.9731C73.1859 31.2914 73.3104 31.6756 73.3592 32.1258C73.4081 32.576 73.3526 33.0993 73.1928 33.6958L73.0813 34.1119L68.1542 32.7917L68.3817 31.9428L72.31 32.9954C72.4066 32.6347 72.4207 32.2936 72.3523 31.972C72.2866 31.6511 72.144 31.3735 71.9243 31.1392C71.7073 30.9056 71.4213 30.7413 71.0662 30.6461C70.6751 30.5413 70.3106 30.5477 69.9728 30.6653C69.6385 30.7809 69.3539 30.9723 69.1188 31.2393C68.8837 31.5064 68.7189 31.8161 68.6245 32.1684L68.4729 32.7344C68.3435 33.2171 68.3171 33.6486 68.3936 34.0289C68.4736 34.4071 68.64 34.7238 68.8928 34.9788C69.1464 35.2311 69.4715 35.4104 69.8682 35.5167C70.1262 35.5859 70.3689 35.6122 70.5963 35.5959C70.8272 35.5775 71.0387 35.5152 71.2306 35.409C71.4234 35.3001 71.5911 35.1458 71.7338 34.9462L72.6112 35.4667C72.4251 35.7618 72.1814 35.9998 71.8802 36.1807C71.5797 36.3589 71.2379 36.4695 70.8547 36.5125C70.4722 36.5528 70.0646 36.5149 69.6318 36.3989ZM78.9447 38.9122C78.5396 38.8036 78.1925 38.6288 77.9032 38.3878C77.6147 38.144 77.4124 37.8504 77.2963 37.5071C77.1809 37.161 77.1789 36.7798 77.2904 36.3637C77.3885 35.9975 77.5402 35.72 77.7454 35.5312C77.9514 35.3395 78.1925 35.2109 78.4688 35.1452C78.7451 35.0794 79.0375 35.0537 79.3459 35.068C79.6578 35.0802 79.9673 35.1066 80.2746 35.1473C80.6764 35.2015 81.0013 35.2484 81.2493 35.2881C81.5009 35.3258 81.6907 35.3276 81.8188 35.2935C81.9496 35.2602 82.0362 35.1644 82.0786 35.0063L82.0875 34.973C82.1975 34.5624 82.1707 34.2133 82.0069 33.9256C81.8459 33.6386 81.5393 33.4345 81.0871 33.3134C80.6183 33.1877 80.2232 33.1919 79.9019 33.3258C79.5805 33.4598 79.3345 33.6288 79.1639 33.8328L78.3209 33.2501C78.5915 32.9063 78.8944 32.6634 79.2298 32.5213C79.5688 32.3773 79.9148 32.3064 80.268 32.3089C80.6247 32.3093 80.964 32.3527 81.2858 32.4389C81.4911 32.4939 81.7202 32.582 81.9731 32.7033C82.2296 32.8226 82.4626 32.9906 82.6721 33.2073C82.8845 33.4248 83.0333 33.707 83.1188 34.054C83.2042 34.401 83.1789 34.8283 83.0429 35.336L81.9144 39.5473L80.9323 39.2842L81.1643 38.4186L81.1143 38.4052C81.0106 38.5261 80.8599 38.6448 80.6621 38.7613C80.4644 38.8778 80.2217 38.957 79.9339 38.9988C79.6462 39.0407 79.3164 39.0118 78.9447 38.9122ZM79.3309 38.0701C79.7193 38.1742 80.0671 38.1856 80.3743 38.1044C80.6843 38.0239 80.9396 37.8812 81.1402 37.6762C81.3436 37.472 81.4809 37.2368 81.5523 36.9705L81.7932 36.0716C81.7382 36.1104 81.6343 36.1316 81.4817 36.1353C81.3326 36.137 81.1624 36.1286 80.9711 36.11C80.7834 36.0894 80.6005 36.0672 80.4225 36.0433C80.2481 36.0174 80.1063 35.9972 79.9972 35.9829C79.733 35.9478 79.48 35.9379 79.2379 35.9534C78.9995 35.9668 78.7925 36.0288 78.6172 36.1394C78.4454 36.248 78.326 36.4271 78.2591 36.6768C78.1677 37.018 78.2248 37.3099 78.4304 37.5523C78.6396 37.7927 78.9397 37.9653 79.3309 38.0701ZM87.1359 40.9464L89.4195 32.4239L90.4515 32.7005L88.4133 40.3075L92.3749 41.369L92.1296 42.2845L87.1359 40.9464ZM93.5944 42.677L95.3071 36.2851L96.2892 36.5482L94.5765 42.9401L93.5944 42.677ZM96.0919 35.3536C95.9005 35.3023 95.7529 35.1929 95.6491 35.0253C95.5481 34.8585 95.5221 34.6835 95.5712 34.5004C95.6203 34.3173 95.7302 34.1788 95.9011 34.0848C96.0748 33.9916 96.2573 33.9706 96.4487 34.0219C96.6401 34.0732 96.7864 34.1823 96.8874 34.3491C96.9911 34.5167 97.0185 34.692 96.9694 34.8751C96.9204 35.0582 96.809 35.1963 96.6354 35.2896C96.4645 35.3835 96.2833 35.4049 96.0919 35.3536ZM98.3876 39.8401L97.3573 43.6852L96.3752 43.4221L98.0879 37.0302L99.0367 37.2844L98.7691 38.2832L98.8523 38.3055C99.0891 38.021 99.3865 37.8212 99.7444 37.706C100.103 37.588 100.524 37.5937 101.007 37.7231C101.439 37.839 101.794 38.0293 102.071 38.2938C102.349 38.5555 102.53 38.8895 102.615 39.2957C102.7 39.6991 102.669 40.1727 102.524 40.7165L101.435 44.778L100.453 44.5148L101.524 40.5199C101.658 40.0178 101.633 39.5917 101.447 39.2416C101.262 38.8887 100.942 38.6514 100.487 38.5294C100.174 38.4454 99.8753 38.4383 99.592 38.5081C99.3114 38.5786 99.0654 38.7253 98.8541 38.9482C98.6427 39.1711 98.4872 39.4684 98.3876 39.8401ZM104.77 43.1738L105.079 41.9542L105.279 42.0077L108.838 39.9106L110.053 40.2362L106.266 42.4507L106.183 42.4284L104.77 43.1738ZM103.23 45.2588L105.514 36.7363L106.496 36.9995L104.212 45.522L103.23 45.2588ZM107.292 46.3471L105.642 42.5154L106.524 42.0203L108.54 46.6816L107.292 46.3471ZM111.985 47.7475C111.369 47.5825 110.875 47.3042 110.501 46.9127C110.13 46.5191 109.89 46.0444 109.781 45.4887C109.674 44.931 109.709 44.3247 109.884 43.67C110.06 43.0153 110.334 42.4702 110.706 42.0348C111.082 41.5973 111.523 41.2961 112.028 41.1311C112.536 40.9641 113.079 40.9579 113.656 41.1125C113.989 41.2017 114.303 41.3453 114.598 41.5432C114.893 41.7412 115.14 42.0007 115.339 42.3217C115.539 42.64 115.664 43.0242 115.713 43.4744C115.762 43.9246 115.706 44.4479 115.546 45.0444L115.435 45.4605L110.508 44.1403L110.735 43.2914L114.664 44.344C114.76 43.9833 114.774 43.6422 114.706 43.3205C114.64 42.9997 114.497 42.7221 114.278 42.4878C114.061 42.2542 113.775 42.0899 113.42 41.9947C113.029 41.8899 112.664 41.8963 112.326 42.0139C111.992 42.1295 111.707 42.3209 111.472 42.5879C111.237 42.855 111.072 43.1647 110.978 43.517L110.826 44.083C110.697 44.5657 110.671 44.9972 110.747 45.3775C110.827 45.7557 110.994 46.0724 111.246 46.3274C111.5 46.5797 111.825 46.759 112.222 46.8653C112.48 46.9344 112.722 46.9608 112.95 46.9444C113.181 46.926 113.392 46.8638 113.584 46.7576C113.777 46.6487 113.945 46.4944 114.087 46.2948L114.965 46.8153C114.779 47.1104 114.535 47.3484 114.234 47.5293C113.933 47.7075 113.591 47.8181 113.208 47.8611C112.826 47.9014 112.418 47.8635 111.985 47.7475ZM118.539 49.5037C118.007 49.361 117.573 49.1004 117.237 48.7221C116.902 48.3409 116.686 47.8726 116.588 47.3171C116.49 46.7588 116.532 46.1412 116.714 45.4642C116.894 44.7929 117.165 44.2411 117.528 43.809C117.89 43.3769 118.313 43.0813 118.795 42.9222C119.278 42.7631 119.789 42.7557 120.327 42.8999C120.743 43.0114 121.053 43.1688 121.257 43.3722C121.465 43.5736 121.609 43.7788 121.69 43.9877C121.774 44.1947 121.838 44.3633 121.88 44.4936L121.963 44.5159L122.806 41.3699L123.788 41.633L121.505 50.1555L120.556 49.9013L120.819 48.9192L120.703 48.888C120.599 48.9852 120.457 49.1047 120.276 49.2466C120.096 49.3857 119.864 49.4915 119.58 49.5641C119.297 49.6338 118.95 49.6137 118.539 49.5037ZM118.909 48.6572C119.303 48.7627 119.663 48.7493 119.99 48.6168C120.318 48.4816 120.602 48.2499 120.841 47.9216C121.081 47.5905 121.266 47.1836 121.396 46.7009C121.524 46.2237 121.566 45.7876 121.523 45.3926C121.481 44.9948 121.351 44.6595 121.133 44.387C120.915 44.1116 120.606 43.9204 120.207 43.8133C119.791 43.7018 119.415 43.7157 119.081 43.855C118.75 43.9923 118.466 44.224 118.23 44.5503C117.997 44.8745 117.821 45.2613 117.7 45.7108C117.578 46.1657 117.537 46.5977 117.576 47.0066C117.619 47.4135 117.748 47.7633 117.964 48.0561C118.183 48.3468 118.498 48.5472 118.909 48.6572ZM126.889 42.4637L124.605 50.9862L123.573 50.7097L125.857 42.1872L126.889 42.4637ZM128.553 47.923L127.523 51.7682L126.541 51.505L128.254 45.1131L129.203 45.3674L128.935 46.3661L129.018 46.3884C129.255 46.1039 129.552 45.9041 129.91 45.7889C130.269 45.6709 130.69 45.6766 131.172 45.806C131.605 45.9219 131.96 46.1122 132.237 46.3767C132.515 46.6385 132.696 46.9724 132.78 47.3786C132.866 47.782 132.835 48.2556 132.69 48.7994L131.601 52.8609L130.619 52.5977L131.69 48.6028C131.824 48.1007 131.799 47.6746 131.613 47.3245C131.428 46.9717 131.108 46.7343 130.653 46.6124C130.34 46.5284 130.041 46.5212 129.758 46.591C129.477 46.6616 129.231 46.8082 129.02 47.0311C128.809 47.254 128.653 47.5513 128.553 47.923ZM136.049 56.6218L138.404 47.833L139.353 48.0872L139.081 49.1026L139.198 49.1338C139.3 49.0422 139.437 48.9274 139.611 48.7896C139.788 48.6498 140.016 48.5442 140.294 48.473C140.575 48.3997 140.924 48.4188 141.34 48.5303C141.878 48.6745 142.316 48.9362 142.655 49.3153C142.993 49.6944 143.211 50.1617 143.309 50.7172C143.407 51.2728 143.366 51.8862 143.186 52.5576C143.005 53.2345 142.733 53.7904 142.369 54.2253C142.007 54.6574 141.585 54.9548 141.105 55.1174C140.625 55.2772 140.118 55.2857 139.586 55.143C139.175 55.033 138.865 54.8769 138.654 54.6748C138.444 54.47 138.296 54.2623 138.21 54.0519C138.124 53.8386 138.061 53.6641 138.02 53.5282L137.937 53.5059L137.032 56.885L136.049 56.6218ZM138.514 51.2876C138.384 51.7703 138.341 52.2151 138.383 52.622C138.427 53.0261 138.557 53.3687 138.773 53.6496C138.99 53.9277 139.295 54.1196 139.689 54.2251C140.099 54.3351 140.471 54.3188 140.804 54.176C141.14 54.0311 141.427 53.7928 141.664 53.461C141.905 53.1272 142.087 52.7327 142.209 52.2778C142.329 51.8283 142.368 51.4047 142.326 51.0069C142.288 50.607 142.158 50.2645 141.937 49.9793C141.72 49.6921 141.403 49.4928 140.987 49.3813C140.587 49.2742 140.224 49.2855 139.898 49.4152C139.573 49.5421 139.293 49.7673 139.057 50.0908C138.823 50.4115 138.641 50.8104 138.514 51.2876ZM146.394 56.9672C145.817 56.8126 145.347 56.5396 144.985 56.1483C144.626 55.7576 144.39 55.2827 144.279 54.7235C144.17 54.165 144.204 53.5556 144.38 52.8953C144.559 52.2295 144.835 51.6807 145.21 51.2487C145.587 50.8176 146.029 50.5226 146.535 50.3639C147.044 50.206 147.587 50.2043 148.164 50.359C148.741 50.5136 149.21 50.7862 149.569 51.1768C149.931 51.5682 150.166 52.0445 150.274 52.6057C150.385 53.1677 150.352 53.7817 150.173 54.4475C149.996 55.1077 149.72 55.6521 149.343 56.0805C148.969 56.5096 148.528 56.8032 148.019 56.9611C147.512 57.1198 146.971 57.1218 146.394 56.9672ZM146.63 56.085C147.068 56.2025 147.459 56.1867 147.802 56.0378C148.146 55.889 148.434 55.6496 148.668 55.3198C148.902 54.9901 149.077 54.6116 149.191 54.1843C149.306 53.7571 149.344 53.3408 149.307 52.9354C149.27 52.53 149.141 52.1756 148.918 51.8723C148.696 51.569 148.366 51.3586 147.928 51.2412C147.49 51.1237 147.099 51.1408 146.755 51.2925C146.411 51.4442 146.121 51.6863 145.886 52.0188C145.652 52.3514 145.477 52.7313 145.363 53.1585C145.248 53.5857 145.21 54.0007 145.248 54.4033C145.285 54.8059 145.416 55.1575 145.638 55.458C145.861 55.7586 146.192 55.9676 146.63 56.085ZM156.682 54.2646L155.732 54.2779C155.716 54.116 155.673 53.9512 155.602 53.7835C155.534 53.6138 155.421 53.4586 155.263 53.318C155.104 53.1774 154.882 53.0688 154.596 52.9922C154.205 52.8874 153.855 52.8902 153.546 53.0007C153.24 53.1091 153.051 53.3006 152.977 53.5753C152.912 53.8194 152.949 54.036 153.088 54.2251C153.228 54.4141 153.474 54.6064 153.826 54.8018L154.712 55.2891C155.246 55.5809 155.615 55.9072 155.819 56.2681C156.023 56.6261 156.066 57.0285 155.946 57.4751C155.848 57.8413 155.655 58.1404 155.367 58.3725C155.081 58.6052 154.729 58.7547 154.31 58.8208C153.891 58.8869 153.433 58.8534 152.936 58.7203C152.284 58.5457 151.783 58.2596 151.431 57.8621C151.08 57.4647 150.92 56.9788 150.952 56.4046L151.947 56.4213C151.943 56.7891 152.042 57.0921 152.243 57.3303C152.446 57.5692 152.749 57.7425 153.152 57.8503C153.609 57.973 153.999 57.9733 154.32 57.8512C154.645 57.727 154.844 57.5276 154.917 57.253C154.977 57.0311 154.949 56.8244 154.834 56.6329C154.719 56.4387 154.511 56.261 154.209 56.0999L153.211 55.5648C152.663 55.2692 152.29 54.939 152.094 54.5741C151.901 54.2072 151.863 53.8032 151.982 53.3621C152.078 53.0014 152.265 52.7095 152.542 52.4863C152.821 52.2639 153.159 52.1209 153.553 52.0571C153.951 51.9941 154.374 52.0229 154.824 52.1433C155.456 52.3128 155.916 52.5846 156.202 52.9586C156.491 53.3334 156.651 53.7688 156.682 54.2646ZM161.44 54.0053L161.217 54.8376L157.904 53.95L158.127 53.1177L161.44 54.0053ZM159.503 51.845L160.485 52.1082L158.853 58.2004C158.778 58.4779 158.763 58.6967 158.806 58.857C158.853 59.0152 158.934 59.135 159.049 59.2164C159.167 59.2957 159.299 59.3547 159.443 59.3933C159.551 59.4223 159.641 59.4406 159.714 59.4481C159.787 59.4528 159.845 59.4565 159.889 59.4594L159.852 60.3951C159.779 60.4022 159.68 60.4023 159.554 60.3953C159.427 60.3911 159.272 60.3644 159.089 60.3154C158.811 60.241 158.556 60.1085 158.321 59.9179C158.09 59.728 157.919 59.4875 157.81 59.1966C157.703 58.9063 157.7 58.5754 157.799 58.2036L159.503 51.845Z" fill="#DD2025"/>
</svg>
