<svg width="316" height="452" viewBox="0 0 316 452" fill="none" xmlns="http://www.w3.org/2000/svg">
<path d="M270.349 196.19C271.184 196.19 271.879 196.19 272.575 196.608C272.993 197.164 272.992 197.164 272.853 197.999C272.158 197.999 271.74 197.999 271.184 197.721C270.627 197.164 270.627 197.025 270.349 196.329V196.19ZM220.675 118.827C222.484 118.827 229.163 120.775 230.554 121.888V122.584L225.684 121.471C224.154 121.193 222.345 121.193 220.675 120.497C220.397 119.801 220.536 119.662 220.675 118.827ZM205.091 177.267H205.787C204.813 178.38 198.273 179.354 196.464 180.05C194.795 180.606 193.542 181.441 192.151 182.554C191.455 182.554 191.734 182.554 191.316 182.137L191.594 181.302C193.682 177.962 201.891 177.823 205.091 177.267ZM86.2639 321.557C87.0988 321.557 87.7945 321.557 88.4902 322.253C89.0468 322.809 89.1859 323.644 89.3251 324.34C89.3251 325.731 88.7685 326.566 88.2119 327.54C87.5162 327.54 86.8205 327.818 86.2639 327.262C85.7073 326.844 85.2899 326.01 85.2899 325.175C85.2899 323.783 85.5682 322.67 86.2639 321.557ZM287.463 201.756H287.742C288.437 201.756 288.437 202.034 288.855 202.591L288.716 203.147C286.489 204.956 279.671 205.234 276.749 205.652H276.61C276.054 205.513 275.636 205.373 275.497 204.817V204.26C277.723 202.591 284.68 202.173 287.463 201.756ZM66.0883 322.253C67.8972 322.392 69.8452 322.948 71.0974 324.757C71.654 325.314 71.9323 326.01 71.9323 326.844C71.9323 327.818 71.3757 328.236 70.8191 328.792H69.4277C68.0363 328.792 66.5058 327.54 65.6709 326.288C65.2535 325.592 64.9752 324.896 65.1143 324.062C65.1143 323.088 65.6709 322.67 66.0883 322.253ZM270.905 190.624C272.034 190.569 273.164 190.71 274.245 191.042C275.358 191.32 288.994 196.329 289.133 196.608L289.272 197.025L288.994 197.582L278.697 194.799C276.471 194.242 273.966 193.964 271.74 193.129C271.184 192.99 270.766 192.851 270.349 192.294C270.349 191.459 270.627 191.32 270.905 190.624ZM119.658 233.202C121.328 233.619 122.858 235.289 124.667 235.985C126.059 236.402 128.006 235.985 129.12 237.237V237.794C127.728 239.742 124.111 240.716 122.163 241.55C125.085 241.69 127.728 241.55 130.511 240.716C127.145 242.808 123.186 243.736 119.241 243.359C118.127 242.246 117.71 242.246 116.458 242.385L115.205 242.246V241.829C117.293 239.602 121.884 239.046 124.389 237.794H124.528C120.215 237.654 115.205 239.185 110.892 237.933C112.283 237.237 114.788 237.654 116.458 237.515C118.051 237.274 119.63 236.949 121.189 236.541L119.797 235.567C119.38 235.011 119.241 234.872 119.101 234.176L119.519 233.202H119.658Z" fill="#82766F"/>
<path d="M225.408 115.07C228.887 114.792 233.339 114.931 236.679 115.905C238.488 116.322 240.436 117.296 241.41 119.384C242.384 121.332 242.244 123.836 241.827 125.923C240.992 130.376 238.488 133.298 235.566 135.524C234.592 135.942 233.339 136.637 232.226 136.081C231.948 136.081 231.948 135.802 231.809 135.385C232.504 133.994 235.009 133.994 235.983 132.046C237.123 129.814 237.606 127.305 237.374 124.81C236.4 117.575 228.469 119.662 225.408 116.74C225.13 115.905 225.269 115.905 225.408 115.07ZM232.783 260.891C233.478 261.169 233.478 261.169 233.896 261.865C234.035 264.091 233.339 266.874 232.504 268.822C229.722 275.223 224.017 276.336 219.147 278.005C225.826 276.753 226.661 276.614 232.504 272.44C233.2 272.44 233.2 272.579 233.757 273.275C233.757 273.97 233.896 274.388 233.618 275.084C232.087 278.145 228.052 279.536 225.408 280.232C218.713 281.031 211.955 281.171 205.233 280.649C207.181 279.675 209.407 279.953 211.355 279.397C216.921 278.005 224.017 274.666 228.609 270.214C230.75 268.361 232.137 265.786 232.504 262.978C232.504 262.422 232.505 261.865 232.783 261.308V260.891ZM55.2376 175.736C59.9684 175.04 66.6473 177.823 69.1518 177.128C69.7084 176.988 69.9867 176.849 70.4041 177.128C70.1258 180.189 72.4912 179.91 73.1869 182.554C73.4652 183.25 73.4652 183.389 73.1869 183.946L72.6304 184.224C72.6304 184.224 69.0127 180.05 67.4821 179.076C64.6993 179.632 61.6381 179.354 58.8553 179.771C56.0724 180.05 53.4288 181.163 50.7851 181.997C49.1154 182.693 47.0282 183.389 45.6368 184.641C44.6628 185.476 43.6888 187.563 42.5757 188.12C42.1583 188.398 42.0191 188.259 41.6017 188.12V187.702C42.1582 184.919 46.1934 181.997 48.0022 180.606C46.5214 180.119 44.9693 179.883 43.4105 179.91C42.1583 180.05 39.7928 181.441 38.6797 180.884V180.189C39.6537 178.519 52.5939 176.293 55.3767 175.736H55.2376ZM252.124 191.598C252.819 191.737 252.958 191.737 253.515 192.433C253.515 193.825 253.515 194.938 253.098 196.19C251.204 204.384 246.655 211.722 240.157 217.061C238.07 218.453 235.705 219.009 233.478 217.896C230.974 216.644 229.304 213.861 228.33 210.939C226.939 206.765 227.495 202.312 228.609 198.416C229.026 197.164 229.304 196.051 229.861 195.077C230.278 194.242 230.835 193.546 231.531 193.407L231.67 193.546C231.67 195.773 230.139 198.277 229.583 200.503C228.887 202.869 229.026 205.373 230 207.739C230.974 210.382 232.783 212.052 234.731 212.887C237.235 214 240.018 213.583 242.384 211.774C247.81 207.878 250.454 198.834 252.124 191.598ZM269.934 175.875C272.299 175.875 275.499 178.797 277.726 180.189C282.039 182.972 291.362 187.841 296.232 186.172C299.154 185.059 298.736 182.971 300.267 180.606C300.545 180.05 300.684 180.05 301.241 180.05C301.658 180.328 301.936 180.606 302.075 181.163C302.632 182.276 302.215 183.528 302.075 184.641C301.658 185.754 301.241 186.728 300.684 187.563C298.458 190.346 295.118 191.181 292.336 191.181C285.657 191.181 279.813 186.45 274.247 181.997C272.856 180.606 270.908 179.354 269.655 177.684C269.516 176.849 269.655 176.571 269.795 175.875H269.934Z" fill="#82766F"/>
<path d="M235.151 176.293C236.944 176.028 238.775 176.269 240.438 176.988C242.247 177.823 243.778 179.632 244.613 181.998C245.587 185.476 244.752 188.816 243.639 192.016C244.752 192.572 246.004 193.268 246.561 194.659C246.839 195.216 246.978 196.051 246.7 196.747C245.865 199.529 240.995 199.112 239.047 200.086C237.795 200.782 235.708 202.451 234.455 202.034C234.038 201.895 234.177 202.034 233.899 201.477C234.038 200.643 234.177 200.643 234.734 200.086C237.795 198.416 240.438 196.747 242.804 193.407C242.108 193.407 241.273 193.407 240.438 193.129C238.351 192.433 236.264 188.676 234.455 187.007C232.786 185.337 230.977 184.502 228.89 183.667C230.003 183.25 231.672 182.832 232.368 181.858L231.951 180.745L232.09 180.328L233.342 179.771H233.76V178.102C234.873 177.267 235.429 178.797 236.542 178.519L235.151 177.545V176.293ZM284.407 321.14C287.051 320.722 291.364 322.531 293.452 324.618C294.615 325.82 295.306 327.401 295.399 329.071C295.678 332.688 294.008 337.141 292.338 339.924C286.355 349.942 273.832 354.951 264.51 356.203C263.536 356.342 262.284 356.621 261.31 356.203C260.753 355.786 260.475 355.508 260.336 354.812C260.753 353.838 261.171 353.42 262.005 353.142C263.675 352.725 265.623 353.003 267.293 352.586C274.111 351.194 281.903 347.994 286.634 341.315C288.442 338.532 290.808 333.941 290.669 330.184C290.39 325.453 286.494 325.453 284.268 322.948C284.129 322.114 284.268 321.835 284.407 321.14ZM140.534 95.7295L141.23 96.2861L141.369 96.8426C140.813 99.0689 139.421 101.017 138.308 102.826C132.663 111.991 125.347 120.015 116.741 126.48C106.445 133.715 93.2261 138.029 81.8165 133.437C76.6682 131.35 70.8243 127.871 68.1806 121.471C68.1806 120.218 68.0415 118.41 68.7372 117.436C69.1546 116.879 69.7112 116.601 70.1286 116.601C72.2157 116.601 73.468 121.749 74.8594 123.28C81.5382 130.237 93.6436 132.741 101.853 131.35C117.715 128.428 131.073 111.87 140.395 95.7295H140.534ZM314.184 180.189C314.879 180.467 315.158 180.467 315.575 181.163C315.714 182.554 315.575 183.667 315.436 185.059C313.891 195.857 308.506 205.736 300.269 212.887C294.425 218.035 287.747 221.096 280.65 219.148C275.188 217.18 270.069 214.363 265.484 210.8L265.623 210.243C267.015 209.826 270.076 212.191 271.467 213.026C272.163 213.583 273.137 213.861 273.832 214.279C271.467 211.774 268.823 209.826 266.319 207.321C269.102 208.991 272.163 210.939 275.085 211.913C275.085 210.522 274.946 209.687 275.363 208.435C277.45 206.069 284.686 211.496 287.329 212.331C289.834 213.165 292.617 213.444 295.121 212.887C303.47 210.939 309.592 200.364 311.818 190.068C312.375 187.702 312.931 182.415 314.045 180.606L314.184 180.189ZM121.194 290.528L123.42 290.389C128.986 290.667 132.742 294.563 137.612 297.068C140.395 298.459 143.596 299.016 146.657 299.433C148.744 299.712 153.336 299.433 154.727 301.381C154.727 301.938 154.727 302.216 154.31 302.773C152.501 304.999 146.796 304.582 144.57 304.443C149.3 307.225 149.579 306.391 154.31 304.999C155.423 304.721 156.814 304.443 157.788 305.556C158.345 306.112 158.623 306.947 158.762 308.06C158.484 308.617 158.205 309.034 157.649 309.312C152.501 311.817 139.56 302.355 134.551 299.155C132.464 298.042 130.377 296.651 128.012 296.094C123.559 294.981 117.437 297.346 113.123 299.155C109.506 300.547 99.7658 306.251 98.0961 311.121V311.4C97.2613 313.487 97.4004 317.244 96.4264 318.774C96.2873 319.192 96.2873 319.052 95.8699 319.052C95.1741 318.496 94.7567 317.661 94.6176 316.687C94.3393 314.878 94.8959 313.069 95.7307 311.678C101.225 304.947 107.482 298.877 114.376 293.589C116.602 292.059 118.689 290.946 121.333 290.528H121.194ZM206.766 4.03494C210.105 3.61751 214.28 3.8958 217.341 6.12207C218.871 7.23521 220.124 8.90491 220.958 11.1312C221.932 13.6357 222.35 16.6969 223.185 19.3406C224.855 25.8802 228.055 30.8893 231.812 35.7593C235.986 40.9076 240.438 45.4993 244.891 49.9518C252.683 57.8829 260.892 65.2574 268.823 72.9102C271.884 75.9714 275.363 78.7542 278.285 82.0936C278.842 82.6502 279.12 83.2067 279.259 84.0416L279.12 84.459C277.172 84.0416 248.648 56.0741 245.03 52.4564C236.682 44.1078 226.942 35.481 222.072 22.9582C220.402 18.5057 219.984 12.3835 216.784 9.32233C213.445 5.98293 208.018 5.5655 203.983 6.53949C198.417 7.79177 192.574 12.8009 189.373 18.784C188.538 20.5928 187.564 22.9582 187.982 25.0454C189.512 34.0896 203.844 27.4108 206.488 29.7762C206.07 30.7502 205.096 31.1676 204.122 31.3068C200.366 32.6982 192.295 32.6982 188.817 29.9153C187.56 28.8076 186.765 27.2681 186.59 25.6019C186.173 22.5408 187.286 19.3406 188.678 16.836C192.852 9.46148 199.809 5.28722 206.766 4.03494ZM19.0635 97.9558C20.5941 98.2341 22.2637 98.3732 23.516 99.4863C24.9074 100.739 26.0206 102.965 26.2989 105.052C26.8554 110.2 23.0986 113.818 21.0115 117.297C16.2806 125.506 21.7072 131.211 25.7423 137.055C27.5511 139.838 29.2208 142.62 30.6123 145.96C31.1688 147.212 31.8645 148.743 32.0037 150.134C32.0037 150.83 32.0037 150.83 31.5863 151.386H30.8906C30.4731 150.83 27.2729 143.316 26.5772 141.925C26.5772 143.316 26.5771 144.429 26.1597 145.681C25.6031 147.49 23.516 151.247 21.9854 151.804C21.4289 152.082 21.1506 151.804 20.594 151.386C20.594 149.717 22.4029 147.769 22.6812 145.821C22.6812 144.986 22.6812 144.151 22.1246 143.594C21.1506 141.925 19.0635 141.368 17.5329 141.229C15.3067 141.229 13.7761 142.064 12.2455 144.012C8.35092 149.023 6.02702 155.075 5.56671 161.405C5.50511 163.908 6.28946 166.359 7.79299 168.362C10.4367 171.701 14.3326 171.84 17.8112 171.84C21.7072 171.284 24.7683 169.753 28.1077 167.388C29.4991 166.414 30.8905 165.3 32.5602 164.605L32.4211 164.883L32.1428 165.161C31.0297 166.553 29.9166 167.805 28.5251 168.779C23.3769 172.953 16.5589 174.345 10.715 172.536C8.95118 171.965 7.3554 170.968 6.06904 169.633C4.78268 168.298 3.84545 166.667 3.34043 164.883C2.34207 161.878 2.15016 158.663 2.78387 155.561C4.17529 149.299 8.34955 143.733 12.663 140.672C16.5589 137.89 20.3158 137.333 24.6292 139.003C21.5681 133.437 17.2546 128.567 16.6981 121.471C16.1415 113.957 20.594 110.339 23.6552 105.191C24.16 104.357 24.3569 103.372 24.2117 102.408C23.2377 99.6255 20.594 100.182 18.7852 99.2081L18.646 98.6515L19.0635 98.0949V97.9558ZM223.185 130.654C223.741 130.932 223.88 131.072 224.159 131.628C224.02 133.994 221.654 136.776 220.541 138.585C227.498 140.672 237.516 143.594 244.195 139.42C246.282 138.307 248.648 135.385 250.735 135.246L250.874 135.524C248.592 138.813 245.713 141.645 242.386 143.873C235.29 148.743 226.107 143.455 219.011 140.672C209.271 151.665 201.2 149.995 189.373 147.629C183.947 146.516 178.798 145.542 173.372 145.264C169.476 145.264 165.441 145.681 161.545 146.934C160.153 147.351 157.927 149.021 156.397 149.16C155.84 149.16 155.701 148.882 155.283 148.464V147.769C156.397 145.96 158.623 144.986 160.293 144.429C170.45 139.698 182.138 142.481 192.574 144.012C198.139 144.707 203.983 145.403 209.41 143.733C212.193 142.899 214.419 141.507 216.784 139.698L204.261 134.968C203.287 134.689 201.618 134.133 201.2 132.88L201.34 132.463C202.731 132.046 216.089 137.194 218.593 138.029C220.263 135.663 221.654 133.159 223.185 130.654ZM101.157 25.4628C102.131 25.4628 103.244 25.4628 104.218 25.8802C105.332 26.4368 106.027 27.5499 106.584 28.9414C107.001 30.0545 106.862 30.8893 106.584 32.0025C106.166 36.1767 104.775 40.351 103.662 44.5253C102.827 47.8647 102.131 51.4824 100.879 54.8218C100.74 55.7958 100.601 56.2132 99.905 56.6306C98.931 53.8478 105.192 34.3679 102.688 28.8022C102.41 28.1065 102.131 27.6891 101.575 27.4108C97.4004 26.2977 87.3822 41.325 84.3211 44.9427C77.8313 53.672 68.4693 59.8312 57.8841 62.3354C49.953 64.1443 41.187 64.1443 33.9517 69.2925C30.8905 71.7971 17.5329 85.1547 15.0283 84.7373L15.1675 84.0416C15.5849 83.3459 16.1415 83.0676 16.5589 82.6502C19.67 80.2162 22.4735 77.4128 24.9074 74.3016C28.6643 69.5708 31.5862 63.1703 35.8996 59.4135C40.3522 55.2392 51.2053 58.5786 56.9101 58.3003C61.8078 58.11 66.5846 56.7247 70.8243 54.2652L72.7723 53.1521C76.9465 50.5084 80.8425 46.7515 84.1819 42.5773C89.4693 35.8985 93.6436 28.2456 101.157 25.4628Z" fill="#82766F"/>
<path d="M140.533 76.9452C143.316 76.5278 149.16 76.2495 151.664 77.78C152.082 78.3366 152.082 78.1975 152.082 79.1714C150.69 80.2846 144.29 79.5889 142.342 79.8672C139.559 80.2846 136.776 81.1194 134.271 82.0934C130.794 83.4717 127.442 85.1476 124.253 87.1025C117.714 91.2768 103.382 102.13 98.0945 108.391C96.7031 109.922 95.7291 111.592 94.8943 113.679C99.0685 114.235 103.243 114.235 107.417 112.566C115.626 109.087 111.87 104.634 112.983 101.852H113.4C114.096 102.269 114.792 103.243 115.487 103.939C116.044 104.913 116.322 105.887 116.183 107C115.905 109.087 114.652 110.339 113.4 111.452C108.687 115.16 102.838 117.126 96.8423 117.018C92.668 117.018 86.2674 115.627 83.3455 111.452C82.3715 110.061 80.7018 106.582 80.9801 104.495C81.1192 103.66 81.2583 103.66 81.8149 103.382C82.3715 103.382 82.5106 103.382 83.0672 103.8C83.2063 105.052 83.4846 106.165 84.0412 107.278C85.7109 111.035 89.6069 112.148 92.668 113.122C92.9463 109.365 94.0594 106.443 95.8682 103.66C106.136 90.4531 120.625 81.1699 136.915 77.3626C138.028 77.2235 139.281 76.9452 140.533 76.9452ZM144.151 90.7202C146.099 90.7202 147.629 93.2248 149.299 94.3379C150.968 95.4511 153.056 96.0076 154.864 96.1468C160.708 96.5642 166.413 95.3119 172.118 94.1988C184.084 91.8334 192.989 91.5551 204.816 96.1468C210.104 98.2339 216.643 102.13 219.287 108.948C220.122 111.035 220.261 113.261 219.705 115.488C218.87 118.409 215.252 124.532 213.165 125.645C209.269 127.871 196.051 117.436 191.876 115.07L189.372 113.679C188.537 113.122 187.841 112.426 187.424 111.313C190.207 109.504 208.017 123.14 214.835 120.357C215.249 120.191 215.617 119.926 215.907 119.587C216.198 119.248 216.403 118.844 216.504 118.409C216.783 117.435 216.783 116.601 216.504 115.627C212.747 102.686 190.902 96.4251 181.719 96.5642C171.561 96.5642 156.812 103.382 147.49 97.5382C146.099 96.7033 143.872 94.7554 143.594 92.9465C143.455 91.9725 143.733 91.5551 144.151 90.7202ZM252.264 146.655C256.021 146.655 262.282 148.325 265.622 150.83C267.013 151.804 268.404 153.473 268.404 155.7C268.683 160.987 264.787 176.988 263.813 183.25C261.865 193.685 260.612 203.843 260.612 214.557C260.612 220.261 260.612 226.105 261.586 231.671C263.673 243.637 269.1 253.377 273.692 263.674C275.739 268.341 277.504 273.127 278.979 278.005C282.458 289.554 284.127 301.659 286.771 313.487L286.91 314.321C286.632 315.017 286.632 315.017 286.075 315.435C285.38 315.435 285.38 315.435 284.823 314.739C282.04 302.216 277.588 291.502 272.3 280.51C269.517 274.944 266.178 268.961 263.952 262.7C261.693 255.59 260.155 248.272 259.36 240.854C256.748 223.193 256.655 205.251 259.082 187.563C259.917 181.302 262.839 170.588 262.699 164.883C262.699 160.57 259.917 152.638 256.856 150.551C255.325 149.438 253.377 149.856 251.986 148.325C251.986 147.49 251.986 147.351 252.264 146.655ZM240.715 31.1675C241.828 31.3066 242.941 32.0023 243.915 32.5589C246.698 33.672 249.62 34.646 252.681 34.9243C262.839 35.62 276.475 30.8892 285.936 34.3677C299.433 39.3768 293.033 54.5433 296.233 67.3444C298.181 74.4406 302.216 79.8672 304.859 86.4068C305.833 88.9114 306.668 91.4159 306.808 94.1988C306.808 97.1208 306.112 100.043 305.138 102.547C303.271 107.475 300.793 112.15 297.763 116.462C294.006 122.027 285.658 131.071 284.266 138.029C282.875 144.986 289.971 147.49 291.641 151.247C291.502 152.082 291.363 152.221 290.945 152.638C293.032 154.03 295.676 154.03 297.902 155.7L298.181 155.839C299.294 155.421 300.268 155.143 301.242 154.447C304.025 153.056 307.225 149.856 308.199 146.099C308.616 144.707 308.616 143.316 308.199 142.064C306.808 139.002 303.607 137.889 301.242 137.055C300.219 138.064 299.045 138.909 297.763 139.559C296.511 140.116 294.285 141.507 292.893 140.672C292.893 140.255 292.615 139.837 292.893 139.42C293.172 139.003 294.146 138.585 294.563 138.168C295.644 137.245 296.582 136.166 297.346 134.967C297.867 134.165 298.331 133.329 298.737 132.463C302.216 125.506 301.242 118.549 302.912 111.313L303.468 111.035C303.885 111.452 304.025 111.452 304.303 112.148C304.999 114.653 304.999 125.784 304.581 128.845C304.303 130.515 303.746 132.185 303.19 133.854C306.39 133.854 310.564 134.55 312.93 137.333C313.904 138.446 314.321 139.837 314.321 141.507C314.321 144.707 312.234 147.351 310.564 149.438C307.661 152.976 303.935 155.747 299.711 157.508C300.546 159.178 301.103 160.57 301.103 162.657C300.79 165.801 299.416 168.745 297.207 171.005C294.146 174.345 288.858 179.075 284.684 178.519C283.571 178.38 282.04 177.823 281.345 176.571C280.788 175.597 280.788 174.345 280.927 173.231L281.205 172.953L282.179 173.51C283.153 174.205 284.127 174.623 285.241 174.901C288.58 175.458 292.198 174.345 294.98 171.701C295.815 170.727 296.928 169.335 296.928 167.666C296.928 166.553 296.511 165.439 295.954 164.605C293.311 160.987 282.597 158.204 278.979 159.039C276.892 159.317 274.944 161.265 272.996 161.126C272.579 160.709 272.579 160.848 272.439 160.152L272.718 159.456C273.413 158.482 274.944 157.787 275.918 157.369C280.649 154.726 284.962 153.195 290.11 152.917L288.162 151.386C285.658 149.16 282.179 146.238 281.484 142.064C280.371 134.55 290.667 123.001 294.285 117.992C296.372 114.931 298.459 111.731 300.129 108.252C309.312 89.468 299.433 85.9894 294.841 69.9881C293.033 63.5875 293.45 57.0479 292.337 50.5082C291.78 47.1688 290.667 44.3859 288.719 42.2988C280.927 34.3677 261.586 38.2637 251.568 36.3157C247.672 35.4809 244.054 33.9503 240.715 31.0283V31.1675Z" fill="#82766F"/>
<path fill-rule="evenodd" clip-rule="evenodd" d="M101.847 263.535H100.178C90.7159 264.926 77.6366 279.119 71.7926 288.58C67.2009 296.233 58.1567 311.817 59.2698 321.974C59.5481 325.731 61.3569 328.931 63.7223 331.158C65.1138 332.549 68.3141 334.497 70.262 334.219L70.6794 334.08C70.4012 332.967 69.288 332.41 68.1749 331.714C66.2269 330.601 63.7224 329.071 62.6092 325.175C62.1918 323.783 62.1918 322.392 62.6092 321C63.1532 319.422 64.0585 317.992 65.2529 316.826C67.4792 314.461 69.9838 312.374 72.4883 310.286L77.4974 306.112L83.3414 300.268C86.6808 296.929 90.0202 293.589 93.6379 290.807C98.2296 287.189 103.517 283.989 108.526 281.345C117.292 276.753 126.197 281.762 135.102 286.632C142.616 290.807 149.99 294.702 157.365 293.311H157.782C158.756 293.033 160.287 292.754 160.983 291.92L160.704 291.363L160.287 291.502L158.478 291.92C156.669 292.337 154.86 291.92 152.912 291.502C149.434 290.528 145.955 288.998 142.616 287.05L145.12 287.745C150.13 289.137 159.035 291.363 161.539 288.859V288.58C159.869 286.632 139.555 280.371 135.937 279.258L132.598 278.423L127.449 277.031L123.136 274.944C121.036 273.74 118.792 272.805 116.457 272.161C115.075 271.94 113.666 271.94 112.283 272.161C105.048 273.135 84.0371 293.172 77.9148 299.99C76.1843 301.933 74.5138 303.928 72.9057 305.973L67.34 312.513L63.4441 316.269C62.0527 317.243 60.9395 318.357 59.8264 319.47C60.5221 316.269 61.4961 313.208 63.0266 310.426C65.8095 304.86 69.4272 300.268 72.9057 295.537C74.9975 292.745 77.0385 289.916 79.028 287.05C81.2542 283.71 83.4805 280.232 86.4025 278.145C89.2521 276.114 92.2791 274.344 95.4467 272.857C99.2036 271.327 105.187 268.683 105.604 267.291C105.882 266.457 105.743 266.178 105.604 265.344C104.63 263.952 103.239 263.674 101.847 263.535ZM84.3154 274.805V274.527C77.3583 281.345 73.3232 285.519 71.0969 296.65V296.929H71.236C72.3492 294.981 73.4623 293.033 74.7146 291.363L76.9408 288.163C80.002 284.267 83.898 279.258 84.3154 274.805Z" fill="#82766F"/>
<path d="M82.2304 263.118H84.0393C84.5958 263.257 85.0132 263.535 85.4307 264.092C85.4307 264.927 85.4307 265.483 85.0133 266.179C83.6218 270.075 76.6647 276.893 73.8819 280.371C65.1298 292.406 58.5382 305.872 54.402 320.166C54.1237 323.505 55.7934 328.514 57.4631 331.297C61.4982 337.976 83.6218 342.429 90.5789 343.82C87.3787 342.429 82.2304 341.037 80.2824 337.42C80.1433 336.585 80.1433 336.585 80.4216 335.75C81.2564 335.054 82.0913 334.915 83.0653 334.776L80.4216 331.993C79.0301 330.184 77.6387 327.819 77.6387 325.175C77.6387 320.166 83.4827 313.487 85.9872 310.009C88.4978 306.656 91.1437 303.406 93.9183 300.269C97.1186 296.512 110.198 282.737 114.233 282.876C114.79 282.876 114.929 283.293 115.346 283.85H115.764L115.903 283.432L116.181 283.711C113.955 286.494 107.972 289.833 105.05 292.059C101.987 294.341 99.1034 296.853 96.4229 299.573C89.9528 306.423 84.3454 314.04 79.7258 322.253C78.9789 323.91 78.7838 325.764 79.1693 327.54C80.1755 330.387 82.0801 332.829 84.5958 334.498C88.4918 337.42 92.9443 338.95 97.1186 341.037C103.102 343.959 109.085 347.299 114.929 350.638C124.112 355.786 133.017 362.604 142.201 368.309C147.488 371.509 156.393 375.266 160.706 379.44C166.55 385.423 166.829 395.72 167.524 404.486L168.638 422.296C168.916 427.723 169.055 433.427 170.725 438.437C172.255 443.446 173.786 443.446 175.595 446.785C175.873 447.342 176.012 447.342 175.873 448.177C175.316 448.037 174.899 447.62 174.342 447.203C166.968 441.359 167.385 424.383 165.716 414.504C165.437 416.313 165.437 419.792 164.602 421.322C164.324 422.018 164.185 422.018 163.628 422.157C162.933 421.6 162.655 420.905 162.376 420.07L160.985 412.695C160.15 406.712 158.898 397.946 157.089 392.659C154.584 385.284 147.349 380.971 142.201 377.353C128.779 366.907 113.739 358.729 97.6752 353.143C88.631 350.36 79.3084 349.525 70.5425 345.072C63.8637 341.733 60.5243 338.115 55.7934 331.158C54.8195 329.767 53.5672 328.097 53.0106 326.149C51.48 321.418 54.6803 313.626 56.0717 309.313L58.7154 300.408C61.4983 291.781 68.4554 275.78 73.7428 269.796C76.2473 266.875 79.3084 264.927 82.2304 263.118Z" fill="#82766F"/>
<path fill-rule="evenodd" clip-rule="evenodd" d="M163.214 0.139143C167.388 -0.278283 178.797 2.08713 181.859 5.56568C182.137 5.9831 182.276 5.98311 182.276 6.67882C181.024 7.51367 176.989 6.12225 173.928 5.14825L171.145 4.17426C164.466 2.78284 155.143 2.78284 149.439 8.48766C148.047 9.87908 146.934 11.8271 146.656 14.3316C146.377 17.3927 147.491 20.0364 148.882 22.4019C151.762 21.1078 154.912 20.5329 158.063 20.7268C161.215 20.9207 164.271 21.8776 166.97 23.515C170.171 25.6021 173.093 29.0807 174.206 33.6724C175.319 37.8466 174.484 41.4643 172.953 45.2211H173.093C173.76 45.26 174.416 45.4008 175.041 45.6386C175.458 45.6386 175.597 45.7777 175.876 46.1951L175.736 46.4734C175.041 47.1691 173.649 47.1691 172.814 47.1691L172.258 47.4474L172.397 47.7257V47.8648C172.536 47.8648 172.397 48.004 172.397 48.1431V48.4214C170.449 50.5085 166.831 51.2043 163.77 51.9L159.457 53.0131L159.039 53.1522L159.457 53.2914C160.152 53.7088 160.848 53.9871 161.266 54.6828V55.2394L160.57 55.7959V55.9351H160.292H163.074C163.492 56.2134 163.631 56.3525 163.77 56.7699L163.631 57.4656L161.544 58.5788L162.379 59.2745L162.24 59.8311C160.431 61.2225 156.674 62.1965 153.335 63.1705C147.54 64.898 141.944 67.2298 136.637 70.1276L130.376 74.5801C128.176 76.2154 125.901 77.7477 123.558 79.1718L123.419 78.8935V78.4761L123.558 78.1978L123.836 78.0587L127.315 75.5541C136.57 68.1689 147.081 62.5128 158.344 58.8571C155.839 58.5788 153.195 59.1353 150.552 59.6919C147.212 60.3876 143.734 61.0833 140.394 60.2485H140.116L139.977 59.9702C141.084 59.5273 142.263 59.2915 143.455 59.2745C144.429 59.2745 145.403 59.2745 146.238 58.9962L152.36 56.7699C154.448 55.9351 156.535 55.1002 158.9 54.5437L158.204 54.2654C157.23 53.9871 156.117 53.7088 155.282 53.848C153.195 54.2654 151.108 55.1002 149.021 55.7959L146.238 56.9091C141.059 58.808 135.815 60.5251 130.515 62.0573C125.367 63.4487 120.08 64.8402 114.792 65.9533C109.226 67.2056 103.661 68.4579 98.0951 70.1276C96.008 70.8233 93.9209 71.519 91.8337 72.493C88.4943 73.8844 85.1549 75.2758 81.6764 75.6932C76.8064 76.389 71.9364 75.415 67.0665 74.3018H66.3708C59.3697 80.2448 50.9208 84.2292 41.8818 85.8506C39.0989 86.1289 36.3161 86.1289 33.5332 85.7115C32.9767 85.7115 32.1418 85.4332 31.5853 85.1549C30.1938 84.5983 28.8024 84.1809 27.6892 84.5983C22.8007 86.3597 17.8326 87.892 12.8011 89.19L6.6788 90.9989L6.26139 91.138C5.56568 91.4163 4.86999 91.5554 4.45256 91.9729C4.03513 92.112 3.61771 92.6686 3.06114 93.086L0.834861 94.7557L0.278301 94.6166H0.139151L0 94.1991C0.278284 93.5034 0.417434 93.2251 0.834861 92.8077C3.6177 89.7466 7.79194 88.6334 11.6879 87.7986C15.6429 86.8636 19.473 85.4624 23.0976 83.6243L23.7933 83.4852C28.2508 81.5574 32.6153 79.4215 36.8726 77.0847C40.4903 75.1367 44.108 73.3278 48.004 72.3538C53.9871 70.9624 60.2485 71.3798 66.3708 72.2147C71.1016 67.9013 76.1107 63.4487 81.3981 61.0833C85.294 59.2745 89.6074 58.8571 93.7817 58.3005C96.982 58.0222 100.182 57.7439 103.243 56.7699C107 55.6568 110.2 53.9871 113.262 52.4565C118.132 49.952 122.862 47.5866 128.985 47.1691C134.542 46.8495 140.117 47.3179 145.543 48.5606L149.717 50.0911C151.866 51.2404 154.24 51.9053 156.674 52.0391C159.457 51.7608 162.518 49.8128 165.301 47.8648L167.249 46.7517C165.162 46.1951 163.074 46.1951 160.709 46.056H158.344C162.935 44.6646 166.97 43.6906 171.84 44.9429C173.232 41.7426 173.928 38.4032 173.232 34.6464C172.397 30.7504 170.032 27.411 167.388 25.463C162.1 21.2887 155.561 21.2887 149.717 23.2367L150.273 23.7933C150.969 24.489 151.665 25.1847 152.221 26.1587C152.639 26.7153 153.056 27.5501 152.917 28.2458L152.5 28.385C151.108 28.385 149.439 26.437 148.186 24.9064L147.491 24.2107C143.218 26.5525 138.447 27.8405 133.576 27.9675C129.263 27.9675 121.054 25.7413 117.853 21.7062L117.992 21.2887C118.827 21.2887 120.08 22.1236 121.193 23.0976L122.584 24.0716C130.654 28.8024 138.864 27.2718 146.934 23.2367C146.099 21.567 145.543 19.8973 145.125 17.671C144.85 14.7063 145.532 11.7313 147.073 9.18337C150.83 3.06112 157.648 0.69571 163.214 0V0.139143ZM59.2745 73.8844L64.2836 74.0235C53.4305 81.5372 47.5866 85.1549 35.0638 84.5983L31.4461 84.0418L29.7764 83.7635L36.3161 80.7024C40.7686 78.4761 45.2212 76.389 49.6737 75.1367C52.874 74.3018 56.0742 74.0235 59.4137 73.8844H59.2745ZM154.448 53.1522C148.507 50.3274 141.953 49.0358 135.385 49.3954C130.793 50.2303 127.037 52.1782 122.862 54.9611L122.028 55.5177C119.801 57.0482 117.575 58.5788 115.21 59.4136C111.366 60.5033 107.374 60.973 103.382 60.8051C89.0509 61.5008 81.1198 62.0573 68.597 72.3538C74.7192 72.3538 80.7023 72.2147 86.6854 70.6841L103.382 67.3447C116.216 65.1006 128.901 62.0803 141.368 58.3005C145.821 56.9091 150.273 55.5177 154.448 53.1522Z" fill="#82766F"/>
<path d="M201.057 277.449H201.614C202.17 277.449 202.449 277.727 202.866 278.145C202.727 279.954 198.692 282.041 197.579 282.736C194.518 284.684 191.317 286.771 188.534 289.693C181.095 299.933 175.145 311.177 170.863 323.088C169.75 326.149 169.472 329.766 168.081 332.827C167.524 334.497 165.854 334.915 164.602 335.332C175.873 344.237 197.996 360.656 197.161 380.553C196.744 389.876 196.048 398.085 198.553 406.99C201.614 417.426 206.901 427.027 211.632 436.071C213.58 439.689 215.806 443.445 217.198 447.341C217.615 448.594 218.172 449.707 217.754 451.098C217.337 451.516 217.337 451.516 216.641 451.376C215.528 449.985 214.554 446.785 213.858 444.837C212.745 442.889 211.771 440.941 210.519 439.132C200.361 422.852 194.1 414.365 190.065 392.659C188.674 385.423 188.117 378.049 186.447 370.952C182.69 356.064 173.646 348.411 163.35 341.733C160.01 339.506 156.393 337.697 152.775 336.028C146.235 332.827 129.121 326.288 124.668 319.47C124.112 318.774 123.973 318.078 123.973 317.104C124.668 315.296 126.06 312.652 127.312 311.539C127.869 311.121 127.869 311.26 128.425 311.539L128.703 311.956C128.147 313.626 126.477 314.739 125.781 316.409C125.364 317.244 125.364 317.8 125.503 318.774C126.199 319.887 127.173 320.305 128.286 320.722C130.93 321.557 133.573 321.14 136.356 321.696C139.696 322.253 143.174 324.062 146.374 325.314V325.175C145.859 323.102 146.158 320.911 147.209 319.052L143.592 316.965C142.896 318.078 142.478 318.913 141.365 319.331C140.53 319.748 139.556 319.609 138.582 319.47C134.408 318.774 134.687 314.182 132.321 310.843C130.93 309.173 129.121 308.06 127.59 306.947C124.112 308.338 121.051 310.843 117.572 312.095C113.815 313.626 109.919 312.93 106.441 315.574C105.049 316.687 103.658 318.078 103.38 320.166C102.406 326.288 106.858 329.21 108.945 333.662C108.945 334.358 108.945 334.358 108.528 335.054C107.832 335.61 107.136 335.61 106.162 335.471C104.493 335.054 101.71 333.384 100.875 331.436C100.039 329.159 99.9418 326.676 100.597 324.34C101.988 318.078 106.162 310.426 110.754 307.365C116.459 303.469 121.885 307.086 127.729 306.251C130.095 305.973 132.46 304.164 134.826 304.303C136.461 304.419 138.04 304.946 139.417 305.834C143.174 308.199 144.287 312.513 147.348 314.878C148.322 315.713 149.436 315.991 150.41 316.409C152.775 315.713 155.279 315.156 157.367 313.626C160.845 311.26 162.932 306.669 165.715 302.912C167.609 300.298 169.752 297.875 172.116 295.677C180.882 287.745 191.596 283.571 201.057 277.588V277.449Z" fill="#82766F"/>
<path fill-rule="evenodd" clip-rule="evenodd" d="M62.7516 104.774H63.3082C63.8647 105.052 64.143 105.191 64.4213 105.887C64.5819 106.953 64.5347 108.039 64.2822 109.087L64.143 110.061C63.4473 115.627 62.7516 121.61 60.5253 126.619L58.5773 129.68C57.8816 130.654 57.1859 131.628 56.7685 132.741L57.3251 133.437L57.4642 133.854L55.2379 136.22C53.5682 137.611 51.4811 139.698 50.6462 140.672C47.446 144.568 45.9154 149.995 44.524 155.421L43.4109 159.178C45.0806 158.204 46.6111 156.952 47.8634 155.143C48.8374 153.891 50.2288 150.969 51.7594 147.769C53.8465 143.455 56.0728 138.724 57.3251 138.307H57.7425L57.8816 138.585L58.1599 139.559C58.7165 143.455 57.0468 149.577 55.3771 152.639C52.4551 157.508 47.7243 159.178 43.2717 159.874L41.1846 166.831C39.3757 172.675 37.1495 179.493 37.0103 183.528C37.0103 186.033 37.706 188.12 38.2626 190.207V190.903L42.4369 189.789L46.3328 188.676C52.3159 187.285 58.7165 186.45 64.8387 186.589C68.1781 186.728 69.1521 187.981 71.3784 191.042C73.0969 190.024 74.9153 189.184 76.805 188.537L77.2224 188.398C79.4486 187.563 82.788 186.589 84.5969 187.981C84.0403 188.537 82.3706 188.815 80.4226 189.233C77.3615 189.789 73.6047 190.485 72.2132 192.294L72.4915 192.572C73.1873 192.572 74.1612 192.155 74.9961 191.598L76.2483 191.042L80.8401 189.929H80.9792C82.2315 189.929 83.4838 189.65 84.4578 190.763L84.5969 191.459V192.155C83.4837 193.546 81.2575 193.825 79.3095 194.103L76.805 194.659C84.4578 194.799 90.7191 196.607 96.0065 204.399L97.3979 206.208C98.7894 208.295 100.042 210.382 101.851 212.052C108.892 216.93 116.859 220.311 125.26 221.987C133.66 223.662 142.315 223.596 150.689 221.792C152.359 221.236 154.307 220.401 155.838 219.288C156.533 218.87 157.229 218.174 157.925 217.479C159.177 216.087 160.429 214.835 161.682 214.557L161.96 214.835V215.113C160.708 217.618 157.507 219.844 155.559 221.096C140.532 230.836 112.704 226.801 99.0677 213.861C97.0713 211.814 95.3416 209.523 93.9194 207.043C91.8249 203.086 88.5055 199.913 84.4578 197.999C85.1535 199.39 85.71 200.782 85.8492 202.173C87.2406 211.078 81.6749 223.044 78.0572 230.28L76.5266 233.063C74.4395 236.819 71.7958 241.689 71.2393 244.472C70.9818 245.508 71.1312 246.604 71.6567 247.533C73.6047 250.873 83.0663 249.342 90.7191 248.09C94.8934 247.394 98.5111 246.699 100.32 247.116H100.459C100.877 247.116 101.016 247.116 101.294 247.673C100.598 248.368 91.8323 250.038 86.1274 251.012L81.814 251.847C83.58 251.84 85.3446 251.747 87.1014 251.568C92.2497 251.012 97.6762 250.455 101.99 253.795C102.407 254.073 102.685 254.351 102.824 255.047H102.546C101.572 255.464 100.459 255.464 99.4851 255.464L97.3979 255.604L94.1977 256.299C87.2406 257.552 78.8921 259.082 72.909 255.047C71.1001 253.795 68.039 251.151 67.6216 248.507C67.2041 246.281 69.4304 242.942 71.2393 240.298L73.3264 237.098C78.4747 225.966 79.7269 213.722 77.5007 201.06L74.4395 202.173L74.1612 202.312V203.425C74.8569 209.269 75.5527 214.974 74.5787 220.818C73.6312 227.53 70.2668 233.665 65.117 238.072C61.0819 241.689 56.9076 243.22 52.0377 241.968C49.393 241.138 46.8674 239.969 44.524 238.489C35.3926 232.822 28.2457 224.46 24.0701 214.557L23.7918 214C21.983 210.382 19.6176 205.512 20.4524 201.199C20.7307 199.529 22.1221 198.416 23.2353 197.442L23.7918 197.025H22.4004C21.009 197.164 19.6176 197.442 18.9219 196.747V196.19C20.8699 194.799 23.2353 194.799 25.6007 194.799C27.5487 194.659 29.3575 194.52 30.8881 193.825L33.3926 192.711L37.1495 190.903H37.2886C34.0883 181.997 35.3406 176.432 36.732 169.196C37.9973 164.671 38.5604 159.978 38.4018 155.282L38.5409 151.943C38.8192 146.934 40.7672 139.837 42.576 133.437L44.524 125.784L45.2197 121.749L46.1937 117.018C46.3717 116.153 46.7532 115.342 47.3068 114.653C47.8634 114.514 48.1417 114.374 48.6983 114.931C49.6722 115.766 49.8114 117.992 49.9505 119.523V120.218L51.6202 116.322C52.1418 114.63 52.8414 112.997 53.7074 111.452C54.2639 111.452 54.2639 111.313 54.8205 111.592C55.5162 114.096 53.4291 119.384 51.6202 123.836C50.7854 125.923 49.9505 127.732 49.6723 128.984C48.9766 131.767 48.5591 134.55 48.2808 137.472V139.142L49.2548 137.333C52.7334 130.932 56.0728 125.088 58.7165 117.853C59.4122 116.044 59.8296 114.096 60.3862 112.148C61.0025 109.638 61.7929 107.174 62.7516 104.774ZM73.4655 195.773L74.8569 196.329C75.9701 197.164 76.8049 198.834 77.2224 200.503L76.805 200.782L76.5266 201.06L75.4135 201.338C74.857 201.477 74.5787 201.338 74.0221 200.782C73.4655 199.808 73.4655 197.164 73.4655 195.773ZM99.0677 253.238C98.2328 252.96 97.2588 253.099 96.2848 253.238C93.7803 253.377 85.1535 254.212 83.4837 255.743L84.5969 255.464C85.2926 255.186 85.9883 255.186 86.8232 255.186H87.5189L88.4929 255.047C90.9974 254.769 93.3628 254.49 95.8674 254.49H97.5371L100.598 254.351C100.181 253.656 99.7633 253.377 99.2068 253.238H99.0677ZM49.1157 203.147H49.9505C50.3679 203.147 50.6463 203.425 51.0637 203.843V204.399C49.6723 206.347 41.7412 206.069 37.5669 206.069H35.0624C34.5058 206.069 33.6709 205.93 33.3926 205.512C34.2275 204.399 42.1586 203.843 46.6111 203.425L49.1157 203.286V203.147ZM71.6567 210.939L70.2653 211.913C67.4824 213.861 64.2821 216.366 61.6384 215.252C60.247 214.696 59.273 213.165 58.4382 211.635L56.2119 215.67C56.4902 216.505 56.4902 216.783 57.1859 217.34C60.1079 219.427 68.3173 216.922 71.2393 215.67L71.5175 214.557C71.6567 213.304 71.935 211.774 71.6567 210.939ZM55.3771 190.068C58.1599 189.65 60.3862 190.624 62.8908 191.459C65.2562 192.433 67.4824 193.268 70.1261 192.851C71.3307 195.982 72.1257 199.256 72.4915 202.59L69.4304 204.26C65.6736 206.347 61.9167 208.434 57.8816 207.878C54.5422 207.321 53.0117 203.982 51.4811 200.782L49.6723 197.164C49.2548 196.329 48.8374 196.19 48.0025 196.051C47.446 196.051 46.8894 196.051 46.3328 196.747H46.6111C46.7075 196.836 46.8003 196.928 46.8894 197.025C47.8634 197.581 48.8374 199.669 49.6723 201.199L50.2288 202.59H38.9583L37.1495 202.451H34.7841L33.9492 202.312C32.2795 202.173 29.9141 202.034 28.9401 203.286C28.9401 204.121 29.2184 204.399 29.6358 204.678L29.7749 205.095C29.2184 205.512 28.2444 205.652 27.4095 205.652C26.9436 205.673 26.4791 205.72 26.0181 205.791C25.0441 205.791 23.931 206.069 23.2353 207.043L23.5135 207.6C24.7658 208.574 29.3575 207.6 30.8881 207.321C30.6098 207.878 29.0792 208.017 27.827 208.156L26.1572 208.295L23.7918 209.687L23.0961 207.878C22.5396 206.486 22.1221 204.956 22.6787 203.286H23.2353C24.6267 201.338 26.2964 199.669 28.1053 198.555C36.4224 193.688 45.7606 190.83 55.3771 190.207V190.068ZM48.8374 207.043H48.2808C43.4109 207.46 38.5409 208.156 33.81 208.852H34.0883C37.706 209.408 41.4629 209.13 45.2197 208.852C46.8894 208.574 48.6983 208.434 50.368 208.434V208.574C46.2766 209.779 42.0857 210.618 37.8452 211.078L37.5669 211.217H44.3848C42.2977 211.913 40.2106 212.052 38.1235 212.191C36.0363 212.33 33.9492 212.609 32.1404 213.165L34.9232 213.304L32.9752 213.583C30.6098 213.861 28.2444 214.278 25.879 214C31.0091 223.026 38.2104 230.704 46.8894 236.402C51.6203 238.628 56.9076 240.02 61.6384 237.098C65.8127 234.315 68.3173 229.306 69.7087 223.74C70.3504 221.225 70.8154 218.668 71.1001 216.087C66.3693 218.453 60.6645 221.236 55.7945 218.314L55.2379 218.035C55.2379 218.174 55.2379 218.453 54.9596 218.592C54.4031 219.705 53.8465 220.818 53.0117 221.653H52.5942V221.375C53.7962 219.273 54.7311 217.029 55.3771 214.696L54.9596 214.974C53.8465 216.644 52.1768 219.148 50.6462 219.288H50.5071L50.2288 219.009C50.6462 217.896 51.6202 216.922 52.7334 215.948L54.1248 214.418C53.0116 214.974 51.8985 215.809 50.9245 216.505L52.5942 213.722C53.0116 213.026 53.1508 212.609 53.2899 211.913L53.0117 211.774L52.316 212.609C51.4811 213.583 50.5071 214.557 49.5331 214.696L49.1157 214.418C49.1157 213.304 49.8114 212.47 50.5071 211.496C51.4811 210.104 52.3159 208.991 51.8985 207.6C51.0636 206.904 49.8114 206.904 48.8374 207.043Z" fill="#82766F"/>
<path fill-rule="evenodd" clip-rule="evenodd" d="M222.346 152.36C219.424 154.169 217.337 159.735 216.224 163.353L206.206 164.048C195.074 164.883 178.795 166.135 178.099 165.857V165.44C178.099 164.744 178.099 164.048 177.682 163.353C176.569 162.239 174.899 161.822 173.229 161.405L172.394 161.126C164.395 159.034 156.173 157.913 147.905 157.787C144.983 157.787 142.061 157.648 139.139 157.091C136.496 156.674 134.408 155.421 132.321 154.308C128.982 152.639 125.921 150.969 120.912 152.082C117.851 152.917 115.207 154.726 112.424 156.535H112.146L110.615 157.648C104.493 161.822 98.5099 165.718 91.4136 166.275L92.805 167.388L93.2224 167.805C93.9181 168.501 94.753 169.197 95.5879 169.057V167.805L97.3967 167.249C98.0924 166.97 98.9272 166.831 99.2055 166.414L99.4838 166.135C99.4838 165.857 99.7621 165.718 100.04 165.44C101.014 164.605 102.267 164.048 103.519 163.353C105.697 162.283 107.75 160.977 109.641 159.457L115.763 155.421C119.381 153.613 121.747 154.03 125.225 155.839C119.103 155.839 113.815 157.23 108.806 161.961L111.033 160.57L111.867 160.013H111.589C109.363 162.239 106.719 164.744 104.075 166.135L101.293 167.388C99.4838 168.083 97.8141 168.779 96.4227 170.031V170.449C96.9793 170.449 99.2056 169.475 101.154 168.362C102.406 167.666 103.519 166.97 104.215 166.831H104.493C104.215 166.831 103.797 167.249 103.38 167.527C101.71 168.501 99.7621 169.753 99.2055 171.145C100.319 171.423 101.849 170.171 102.962 169.197L104.215 168.362C106.302 166.97 108.806 165.996 111.172 165.022L113.955 163.909C112.285 164.048 110.754 164.327 109.085 164.744H108.945C109.919 163.631 111.033 162.657 112.285 161.961C116.042 159.039 120.633 156.952 125.086 156.813C127.451 156.813 129.678 157.787 131.904 158.9C133.434 159.596 134.965 160.291 136.635 160.709C138.861 161.265 141.226 161.405 143.592 161.683L147.627 161.961C155.341 162.908 162.94 164.633 170.307 167.109C168.916 167.109 167.663 167.109 166.55 167.944H171.42V168.362H170.585C169.194 168.501 167.524 168.779 166.829 169.753C168.22 170.449 170.725 170.031 172.394 169.753H173.09C174.899 169.753 176.569 169.614 178.377 169.336C180.325 169.336 182.273 169.057 184.221 169.197C180.743 170.449 176.847 171.145 173.368 171.84L171.559 172.119L169.055 172.536C168.637 172.536 168.498 172.536 168.22 173.093L168.498 173.51C169.194 173.649 170.029 173.51 170.864 173.232L171.838 172.953L173.507 172.536C176.744 171.901 179.947 171.112 183.108 170.171C185.334 169.475 187.422 168.779 189.787 168.501C185.056 170.866 179.769 171.979 174.481 173.093L169.751 174.066L169.611 174.345C169.194 175.18 168.916 175.875 167.942 176.154C167.246 175.875 166.55 174.901 165.994 173.927C165.576 173.232 165.159 172.536 164.602 172.119L164.463 171.84L164.881 174.066L165.576 179.215C164.881 179.215 163.907 177.823 162.793 176.014C161.402 174.067 159.732 171.84 158.341 171.145C155.975 170.31 152.358 170.171 149.297 170.031H146.514C126.617 168.779 108.945 171.005 91.2745 183.25C90.3567 182.186 89.6486 180.959 89.1873 179.632C88.909 178.797 88.7699 178.241 89.1873 177.128C89.6048 176.571 89.883 176.571 90.3004 176.571H91.4136V176.014C90.2564 172.139 88.6696 168.406 86.6827 164.883L84.0391 159.596V160.709C83.7888 163.159 83.7423 165.626 83.8999 168.083C84.4565 174.066 87.2393 179.91 90.857 183.667C90.5787 183.667 90.3004 183.946 90.1613 184.085C88.909 184.92 87.6568 185.894 86.961 187.146C86.961 187.842 86.9611 187.981 87.2394 188.537C88.6308 189.094 90.7179 187.424 92.2484 186.172L93.0833 185.615C95.9378 194.712 101.174 202.879 108.25 209.269C118.407 219.705 127.312 220.818 139.696 218.87C145.679 217.896 151.245 216.087 157.089 213.583L158.063 213.305C159.037 212.887 159.871 212.609 160.567 212.052C161.124 211.635 161.68 210.939 161.959 210.243C164.741 205.513 164.741 199.529 164.741 193.825V190.485L165.02 188.676C165.171 187.289 165.171 185.889 165.02 184.502V184.363L166.411 186.311L167.246 186.033C167.524 185.198 167.524 184.641 167.524 183.946V182.832C168.081 183.25 168.359 183.806 168.637 184.363C169.055 184.92 169.333 185.476 169.89 185.894L170.168 185.615L170.585 184.224L173.646 183.25L175.873 182.693L178.656 181.719C181.438 180.884 184.082 180.05 186.726 179.493L189.509 179.215C190.622 179.215 191.874 179.215 192.987 178.797C194.685 178.231 196.318 177.485 197.857 176.571C203.425 173.713 209.309 171.518 215.389 170.031V171.005C215.25 175.736 214.833 184.224 216.085 187.424C216.92 186.589 217.894 176.988 218.311 172.814L218.45 171.145L222.068 171.423H222.624L222.068 172.397C220.816 174.206 219.146 176.71 219.285 178.38L219.563 178.658L219.981 178.38C221.233 175.736 222.764 173.51 224.155 171.423L225.825 171.979L228.608 172.953C227.634 172.118 226.52 171.562 225.407 171.005L224.712 170.588L224.851 170.31C225.407 169.614 225.964 168.918 226.66 168.501V168.779L225.964 169.892C226.938 169.336 228.051 168.501 228.329 167.527H228.19C230.004 167.048 231.891 166.906 233.756 167.109V167.249H234.034L234.591 168.083L235.982 168.779L235.704 169.197C231.132 171.222 227.191 174.443 224.294 178.519L224.433 178.936C225.407 178.936 227.355 177.267 229.164 175.597L232.225 172.953C234.486 171.755 237.058 171.27 239.6 171.562C242.661 171.84 246 173.371 247.948 176.571C249.896 179.771 249.618 182.554 249.34 185.894L249.201 187.563L249.479 187.842L249.896 187.702C250.453 187.146 250.87 186.589 251.149 185.894C252.123 183.806 252.401 181.719 251.844 179.354C250.87 174.345 247.392 171.145 244.191 168.779C244.284 168.777 244.377 168.777 244.47 168.779L246.974 170.171L249.757 171.562L250.035 171.005C250.035 170.31 249.757 170.031 249.34 169.614C245.722 165.718 239.6 166.553 235.008 167.109C234.544 167.112 234.081 167.112 233.617 167.109L236.4 165.161C240.574 162.935 246.279 162.935 250.453 165.301C255.462 168.223 256.714 175.18 255.601 181.719L255.323 183.111C255.045 184.502 254.627 186.172 254.905 187.007L255.323 186.45C257.41 182.972 259.08 175.875 258.801 171.423C258.662 168.083 257.41 165.161 255.462 163.074C251.009 158.343 244.331 157.509 238.765 158.9L235.704 159.735C234.73 160.152 233.756 160.57 232.643 160.709C229.303 161.544 225.825 161.961 222.346 162.379H221.79C223.599 159.735 225.268 156.952 226.66 154.03L226.799 153.613C227.216 152.778 227.912 151.525 227.634 150.552C226.938 150.134 226.242 150.691 225.407 151.247C224.851 151.665 224.155 152.082 223.598 152.082H223.32C222.903 152.082 222.624 152.082 222.346 152.36ZM227.912 167.527L227.077 167.805V168.223L227.912 167.527ZM215.528 167.109V166.831C212.467 167.249 209.684 167.805 206.901 168.779H207.18L205.232 169.475C203.145 170.171 201.057 170.866 199.249 171.979C200.779 171.979 202.449 171.423 203.979 171.005L207.458 170.31C208.571 170.031 209.823 170.031 211.076 170.031L215.25 169.614C215.528 168.918 215.528 168.223 215.528 167.388V167.109ZM210.519 170.31H210.797V170.449C209.823 171.423 202.588 173.51 199.249 174.623L197.996 174.901C197.161 175.18 196.327 175.736 195.492 176.293C194.24 177.267 192.987 178.102 191.735 177.823L193.126 177.128V176.849C186.448 177.128 180.047 178.658 173.646 180.328H173.507C172.752 180.659 171.957 180.893 171.142 181.024L171.003 180.884C172.951 179.632 175.177 179.215 177.264 178.797L179.49 178.38L182.83 177.406L187.004 176.293L191.874 175.319L198.831 173.788L203.284 172.397C205.586 171.365 208.021 170.662 210.519 170.31ZM231.39 162.518L230.973 162.379C230.277 162.379 229.582 162.379 228.747 162.657C225.686 162.935 222.346 163.353 219.424 164.466H220.398C221.651 164.744 222.764 164.744 224.016 164.466L223.738 164.744L220.537 165.301L219.146 165.44L222.068 165.579L225.129 165.857H224.712L223.32 166.135C222.112 166.304 220.906 166.49 219.703 166.692L219.007 169.614C219.424 170.31 219.563 170.449 220.12 170.588L221.511 170.866L222.903 171.145C224.109 169.083 225.609 167.208 227.355 165.579L228.747 164.605C229.721 164.048 230.834 163.213 231.251 162.518H231.39ZM201.892 168.64H202.588C202.031 169.197 201.197 169.614 200.362 170.031L199.249 170.31L197.718 171.284L194.935 172.675L192.013 173.371L190.761 173.51C186.587 174.484 182.273 174.901 177.96 175.458L172.672 176.154H172.394C171.838 176.154 171.42 176.432 171.003 176.293C170.585 176.293 170.585 176.293 170.307 175.736L170.585 175.18C173.196 173.899 176.032 173.143 178.934 172.953L181.995 172.536L186.587 171.562C191.735 170.449 196.744 169.475 201.892 168.64ZM146.792 171.84H141.366C127.975 172.91 114.855 176.202 102.545 181.58L101.432 181.998C99.3447 182.832 96.701 183.946 95.4487 185.894C95.0313 186.45 95.0313 186.728 95.0313 187.563C95.5878 192.712 107.693 205.93 111.589 208.713C117.99 213.444 124.529 216.227 131.904 217.061C138.861 217.479 153.749 215.67 158.897 209.826C160.985 207.321 161.263 202.591 161.263 199.112C161.541 192.572 160.567 183.25 157.089 178.38C154.306 174.762 149.853 173.927 146.236 173.927C145.122 173.927 142.896 174.345 140.67 174.762C137.887 175.319 135.104 175.875 133.991 175.597V175.319C136.774 172.814 144.566 171.979 147.905 171.84H146.792Z" fill="#82766F"/>
<path d="M109.505 181.998C109.783 181.998 110.062 181.998 110.201 182.276C111.592 182.693 112.288 186.033 112.844 187.424C116.312 189.227 120.105 190.316 124.001 190.627C127.897 190.937 131.815 190.463 135.524 189.233C137.333 188.676 139.003 187.285 140.673 186.589C141.368 186.45 141.647 186.45 142.064 186.728V187.424C142.064 187.842 141.786 188.12 141.508 188.398C136.777 192.99 128.846 194.381 123.141 193.546C121.193 193.268 119.245 192.433 117.158 192.155C118.549 192.711 119.941 193.268 121.332 193.546C129.402 195.633 137.194 193.129 143.734 187.146L144.151 187.424H143.873V187.842C140.255 191.877 137.055 196.19 132.742 198.555C129.402 200.364 124.532 201.756 121.193 199.947C120.775 199.529 120.358 199.39 119.801 199.251V199.529L120.358 200.503C123.141 202.869 129.124 201.477 132.046 200.643C139.003 198.555 140.394 193.964 145.96 189.79C143.067 193.626 139.905 197.253 136.499 200.643C138.864 198.973 141.368 197.581 143.873 196.329C141.229 198.416 139.142 201.477 136.359 203.286C132.185 206.069 126.341 205.513 122.028 203.704C120.636 204.121 119.245 204.817 117.853 205.513C117.019 205.93 115.766 206.765 115.071 206.208V205.652C116.323 204.26 117.853 203.147 119.245 201.895C116.74 202.173 114.236 203.704 112.01 203.704V203.425C112.984 202.034 114.514 201.617 115.627 200.364C114.097 200.225 112.149 201.338 110.479 201.477L110.34 201.338C111.731 199.39 115.905 198.973 116.601 197.025C116.601 196.19 116.601 196.051 116.184 195.633H115.766C114.792 197.721 113.679 198.416 112.01 199.529C112.566 198.138 113.679 195.912 113.54 194.242C113.123 194.242 111.453 197.442 110.618 198.138C110.062 198.555 109.644 198.555 109.227 198.277C109.227 197.442 110.479 196.19 110.757 195.216C112.01 191.737 110.062 187.981 109.366 184.641C109.088 183.528 109.088 183.25 109.505 181.998Z" fill="#82766F"/>
</svg>
